<mxfile host="app.diagrams.net" agent="Mozilla/5.0 (Windows NT 10.0; Win64; x64) AppleWebKit/537.36 (KHTML, like Gecko) Chrome/127.0.0.0 Safari/537.36" version="24.7.6">
  <diagram name="Page-1" id="scM5kiGuQ1cG9zO2YNOc">
    <mxGraphModel dx="989" dy="514" grid="0" gridSize="10" guides="1" tooltips="1" connect="1" arrows="1" fold="1" page="1" pageScale="1" pageWidth="850" pageHeight="1100" math="0" shadow="0">
      <root>
        <mxCell id="0" />
        <mxCell id="1" parent="0" />
        <mxCell id="XaqMZLm9P4sH2vusRG7k-1" value="start" style="ellipse;shape=doubleEllipse;whiteSpace=wrap;html=1;" vertex="1" parent="1">
          <mxGeometry x="335" y="54" width="147" height="108" as="geometry" />
        </mxCell>
        <mxCell id="XaqMZLm9P4sH2vusRG7k-3" value="" style="endArrow=classic;html=1;rounded=0;exitX=0.5;exitY=1;exitDx=0;exitDy=0;" edge="1" parent="1" source="XaqMZLm9P4sH2vusRG7k-1">
          <mxGeometry width="50" height="50" relative="1" as="geometry">
            <mxPoint x="399" y="409" as="sourcePoint" />
            <mxPoint x="408.5" y="218" as="targetPoint" />
          </mxGeometry>
        </mxCell>
        <mxCell id="XaqMZLm9P4sH2vusRG7k-6" style="edgeStyle=orthogonalEdgeStyle;rounded=0;orthogonalLoop=1;jettySize=auto;html=1;entryX=0.5;entryY=0;entryDx=0;entryDy=0;" edge="1" parent="1" source="XaqMZLm9P4sH2vusRG7k-4" target="XaqMZLm9P4sH2vusRG7k-5">
          <mxGeometry relative="1" as="geometry" />
        </mxCell>
        <mxCell id="XaqMZLm9P4sH2vusRG7k-9" style="edgeStyle=orthogonalEdgeStyle;rounded=0;orthogonalLoop=1;jettySize=auto;html=1;entryX=0.5;entryY=0;entryDx=0;entryDy=0;" edge="1" parent="1" source="XaqMZLm9P4sH2vusRG7k-4" target="XaqMZLm9P4sH2vusRG7k-8">
          <mxGeometry relative="1" as="geometry" />
        </mxCell>
        <mxCell id="XaqMZLm9P4sH2vusRG7k-4" value="user inputs option&lt;br&gt;1 or 2" style="rhombus;whiteSpace=wrap;html=1;" vertex="1" parent="1">
          <mxGeometry x="342.25" y="212" width="132.5" height="105" as="geometry" />
        </mxCell>
        <mxCell id="XaqMZLm9P4sH2vusRG7k-5" value="Option 1: Show career options" style="rounded=0;whiteSpace=wrap;html=1;" vertex="1" parent="1">
          <mxGeometry x="128" y="301" width="120" height="60" as="geometry" />
        </mxCell>
        <mxCell id="XaqMZLm9P4sH2vusRG7k-8" value="Option 2: have user take personal quiz" style="rounded=0;whiteSpace=wrap;html=1;" vertex="1" parent="1">
          <mxGeometry x="535" y="301" width="120" height="60" as="geometry" />
        </mxCell>
      </root>
    </mxGraphModel>
  </diagram>
</mxfile>
